<svg xmlns="http://www.w3.org/2000/svg" width="1088" height="687.962" viewBox="0 0 1088 687.962">
  <g id="Group_12" transform="translate(-57 -56)">
    <g id="Group_11" transform="translate(57 56)">
      <path id="Path_83" d="M1017.81,560.461c-5.27,45.15-16.22,81.4-31.25,110.31-20,38.52-54.21,54.04-84.77,70.28a193.275,193.275,0,0,1-27.46,11.94c-55.61,19.3-117.85,14.18-166.74,3.99a657.282,657.282,0,0,0-104.09-13.16q-14.97-.675-29.97-.67c-15.42.02-293.07,5.29-360.67-131.57-16.69-33.76-28.13-75-32.24-125.27-11.63-142.12,52.29-235.46,134.74-296.47,155.97-115.41,369.76-110.57,523.43,7.88C941.15,276.621,1036.99,396.031,1017.81,560.461Z" transform="translate(-56 -106.019)" fill="#f5f7fa"/>
      <path id="Path_84" d="M986.56,670.771c-20,38.52-47.21,64.04-77.77,80.28a193.272,193.272,0,0,1-27.46,11.94c-55.61,19.3-117.85,14.18-166.74,3.99a657.3,657.3,0,0,0-104.09-13.16q-14.97-.675-29.97-.67-23.13.03-46.25,1.72c-100.17,7.36-253.82-6.43-321.42-143.29L382,283.981,444.95,445.6l20.09,51.59,55.37-75.98L549,381.981l130.2,149.27,36.8-81.27L970.78,657.9l14.21,11.59Z" transform="translate(-56 -106.019)" fill="#f2f2f2"/>
      <ellipse id="Ellipse_18" cx="544" cy="30" rx="544" ry="30" transform="translate(0 583.962)" fill="#e6e6e6"/>
    </g>

    <!-- 文档堆叠组 - 左侧 -->
    <g id="Documentation_Stack" transform="translate(200 250)">
      <!-- 主文档 -->
      <rect x="0" y="0" width="180" height="220" rx="8" fill="#6c63ff" />
      <rect x="15" y="20" width="150" height="15" rx="2" fill="white" opacity="0.8" />
      <rect x="15" y="45" width="150" height="15" rx="2" fill="white" opacity="0.8" />
      <rect x="15" y="70" width="100" height="15" rx="2" fill="white" opacity="0.8" />
      <rect x="15" y="95" width="150" height="15" rx="2" fill="white" opacity="0.8" />
      <rect x="15" y="120" width="120" height="15" rx="2" fill="white" opacity="0.8" />
      <rect x="15" y="145" width="150" height="15" rx="2" fill="white" opacity="0.8" />
      <rect x="15" y="170" width="90" height="15" rx="2" fill="white" opacity="0.8" />
      
      <!-- 第二文档 -->
      <rect x="30" y="30" width="180" height="220" rx="8" fill="#6c63ff" opacity="0.7" />
      <rect x="45" y="50" width="150" height="15" rx="2" fill="white" opacity="0.8" />
      <rect x="45" y="75" width="150" height="15" rx="2" fill="white" opacity="0.8" />
      <rect x="45" y="100" width="100" height="15" rx="2" fill="white" opacity="0.8" />
      <rect x="45" y="125" width="150" height="15" rx="2" fill="white" opacity="0.8" />
      <rect x="45" y="150" width="120" height="15" rx="2" fill="white" opacity="0.8" />
      <rect x="45" y="175" width="150" height="15" rx="2" fill="white" opacity="0.8" />
      <rect x="45" y="200" width="90" height="15" rx="2" fill="white" opacity="0.8" />
      
      <!-- 第三文档 -->
      <rect x="60" y="60" width="180" height="220" rx="8" fill="#6c63ff" opacity="0.4" />
      <rect x="75" y="80" width="150" height="15" rx="2" fill="white" opacity="0.8" />
      <rect x="75" y="105" width="150" height="15" rx="2" fill="white" opacity="0.8" />
      <rect x="75" y="130" width="100" height="15" rx="2" fill="white" opacity="0.8" />
      <rect x="75" y="155" width="150" height="15" rx="2" fill="white" opacity="0.8" />
      <rect x="75" y="180" width="120" height="15" rx="2" fill="white" opacity="0.8" />
      <rect x="75" y="205" width="150" height="15" rx="2" fill="white" opacity="0.8" />
      <rect x="75" y="230" width="90" height="15" rx="2" fill="white" opacity="0.8" />
    </g>
    
    <!-- 用例展示组 - 右侧 -->
    <g id="Use_Cases" transform="translate(600 250)">
      <!-- 用例框架 -->
      <rect x="0" y="0" width="240" height="280" rx="10" fill="#e6e6e6" />
      
      <!-- 用例1 -->
      <rect x="20" y="20" width="200" height="60" rx="5" fill="#6c63ff" />
      <rect x="35" y="35" width="120" height="10" rx="2" fill="white" opacity="0.9" />
      <rect x="35" y="55" width="170" height="10" rx="2" fill="white" opacity="0.7" />
      
      <!-- 用例2 -->
      <rect x="20" y="90" width="200" height="60" rx="5" fill="#6c63ff" opacity="0.7" />
      <rect x="35" y="105" width="120" height="10" rx="2" fill="white" opacity="0.9" />
      <rect x="35" y="125" width="170" height="10" rx="2" fill="white" opacity="0.7" />
      
      <!-- 用例3 -->
      <rect x="20" y="160" width="200" height="60" rx="5" fill="#6c63ff" opacity="0.4" />
      <rect x="35" y="175" width="120" height="10" rx="2" fill="white" opacity="0.9" />
      <rect x="35" y="195" width="170" height="10" rx="2" fill="white" opacity="0.7" />
      
      <!-- 更多用例指示 -->
      <circle cx="120" cy="240" r="5" fill="#6c63ff" />
      <circle cx="140" cy="240" r="5" fill="#6c63ff" opacity="0.7" />
      <circle cx="160" cy="240" r="5" fill="#6c63ff" opacity="0.4" />
    </g>
    
    <!-- 连接线 -->
    <g id="Connections">
      <path d="M480,380 C520,380 560,380 600,380" stroke="#6c63ff" stroke-width="3" stroke-dasharray="10,5" />
      <circle cx="480" cy="380" r="8" fill="#6c63ff" />
      <circle cx="600" cy="380" r="8" fill="#6c63ff" />
    </g>
    
    <!-- 装饰元素 -->
    <g id="Decorations">
      <circle cx="200" cy="200" r="15" fill="#6c63ff" opacity="0.3" />
      <circle cx="850" cy="220" r="10" fill="#6c63ff" opacity="0.3" />
      <circle cx="300" cy="500" r="12" fill="#6c63ff" opacity="0.3" />
      <circle cx="750" cy="480" r="18" fill="#6c63ff" opacity="0.3" />
      
      <!-- 代码片段装饰 -->
      <rect x="450" y="150" width="140" height="80" rx="5" fill="#e6e6e6" />
      <rect x="460" y="160" width="120" height="8" rx="2" fill="#6c63ff" opacity="0.8" />
      <rect x="460" y="175" width="100" height="8" rx="2" fill="#6c63ff" opacity="0.6" />
      <rect x="460" y="190" width="110" height="8" rx="2" fill="#6c63ff" opacity="0.6" />
      <rect x="460" y="205" width="80" height="8" rx="2" fill="#6c63ff" opacity="0.6" />
      <rect x="460" y="220" width="90" height="8" rx="2" fill="#6c63ff" opacity="0.8" />
    </g>
  </g>
</svg>